#N canvas 0 22 1343 703 10;
#X declare -lib mrpeach;
#X obj 1053 575 dac~;
#X obj 130 281 vline~;
#X obj 158 11 tgl 15 0 empty empty empty 17 7 0 10 -262144 -1 -1 0
1;
#X floatatom 186 104 5 0 0 0 - - -;
#X obj 247 61 + 1;
#X obj 275 60 mod 16;
#X obj 216 62 i;
#X obj 226 149 mod 4;
#X obj 232 223 bng 15 250 50 0 empty empty empty 17 7 0 10 -262144
-1 -1;
#X obj 225 175 select 0;
#X obj 158 33 metro 120;
#X obj 316 308 vline~;
#X obj 345 227 bng 15 250 50 0 empty empty empty 17 7 0 10 -262144
-1 -1;
#X obj 339 153 mod 4;
#X obj 338 179 select 2;
#X obj 258 308 noise~;
#X obj 282 336 *~;
#X obj 1044 384 receive~ out;
#X obj 525 529 send~ out;
#X msg 318 279 0.3 0 \, 0 30;
#X obj 129 346 lores~;
#X floatatom 193 309 5 0 0 0 - - -;
#X floatatom 223 344 5 0 0 0 - - -;
#X obj 129 310 osc~;
#X msg 132 252 170 0 \, 80 100 \, 0 200;
#X obj 466 294 lores~;
#X floatatom 530 257 5 0 0 0 - - -;
#X floatatom 577 261 5 0 0 0 - - -;
#X obj 466 258 phasor~;
#X obj 482 341 *~;
#X obj 638 306 vline~;
#X obj 620 483 *~ 0.3;
#X obj 467 144 * 110;
#X obj 468 163 /;
#X obj 585 520 delwrite~ seq 1000;
#X msg 639 277 1 30 \, 0 100 100;
#X obj 1142 -16 import mrpeach;
#X obj 1141 38 udpreceive 19999;
#X obj 1141 72 unpackOSC;
#X obj 222 33 bang;
#X obj 1211 121 routeOSC /hb;
#X obj 558 72 bang;
#X obj 1161 186 > 0;
#X obj 1162 270 select 1;
#X obj 1201 242 * 100;
#X obj 622 436 delread~ seq 480;
#X obj 467 186 * 1;
#X obj 1212 143 unpack i f f f;
#X obj 467 122 + 1;
#X obj 1263 244 send detune;
#X obj 1263 221 + 1;
#X obj 1262 193 * 0.1;
#X obj 467 102 random 7;
#X obj 515 158 receive detune;
#X obj 762 293 lores~;
#X floatatom 821 263 5 0 0 0 - - -;
#X floatatom 873 260 5 0 0 0 - - -;
#X obj 762 257 phasor~;
#X obj 778 340 *~;
#X obj 934 305 vline~;
#X obj 763 173 * 110;
#X obj 822 129 random 3;
#X obj 764 192 /;
#X msg 935 276 1 30 \, 0 100 100;
#X obj 907 78 bang;
#X obj 763 151 + 1;
#X obj 763 131 random 7;
#X obj 654 347 +~;
#X obj 468 208 sig~;
#X obj 501 232 *~;
#X obj 544 210 +~ 1;
#X obj 620 179 *~;
#X obj 641 155 osc~ 1;
#X obj 927 438 + 1;
#X floatatom 900 461 5 0 0 0 - - -;
#X obj 900 508 select 0;
#X obj 901 530 bang;
#X obj 932 551 + 2;
#X obj 901 595 mtof;
#X obj 901 616 send base;
#X obj 523 123 receive base;
#X obj 804 152 receive base;
#X obj 1140 466 vline~;
#X obj 1137 509 clip~ 0 1000;
#X msg 1173 402 -2 0 \, 1000 10000 10000;
#X obj 1284 173 send dist;
#X obj 548 356 receive dist;
#X obj 609 400 * -1;
#X obj 542 433 clip~ -1 1;
#X obj 548 378 - 1;
#X obj 1102 550 vd~ main 1000;
#X obj 1044 412 delwrite~ main 1000;
#X obj 899 438 i 0;
#X obj 901 552 i 0;
#X obj 958 551 mod 12;
#X obj 901 574 + 24;
#X obj 900 485 mod 1000;
#X connect 1 0 23 0;
#X connect 2 0 10 0;
#X connect 4 0 5 0;
#X connect 5 0 3 0;
#X connect 5 0 6 1;
#X connect 5 0 7 0;
#X connect 5 0 13 0;
#X connect 6 0 4 0;
#X connect 7 0 9 0;
#X connect 9 0 24 0;
#X connect 9 0 8 0;
#X connect 11 0 16 1;
#X connect 13 0 14 0;
#X connect 14 0 19 0;
#X connect 14 0 12 0;
#X connect 15 0 16 0;
#X connect 16 0 18 0;
#X connect 17 0 91 0;
#X connect 19 0 11 0;
#X connect 20 0 18 0;
#X connect 21 0 20 1;
#X connect 22 0 20 2;
#X connect 23 0 20 0;
#X connect 24 0 1 0;
#X connect 25 0 29 0;
#X connect 26 0 25 1;
#X connect 27 0 25 2;
#X connect 28 0 25 0;
#X connect 29 0 67 0;
#X connect 30 0 29 1;
#X connect 31 0 18 0;
#X connect 31 0 34 0;
#X connect 32 0 33 0;
#X connect 33 0 46 0;
#X connect 35 0 30 0;
#X connect 37 0 38 0;
#X connect 38 0 40 0;
#X connect 39 0 6 0;
#X connect 40 0 47 0;
#X connect 41 0 35 0;
#X connect 41 0 52 0;
#X connect 42 0 43 0;
#X connect 43 0 41 0;
#X connect 43 0 64 0;
#X connect 44 0 26 0;
#X connect 44 0 55 0;
#X connect 45 0 31 0;
#X connect 46 0 68 0;
#X connect 47 0 39 0;
#X connect 47 0 42 0;
#X connect 47 1 44 0;
#X connect 47 2 51 0;
#X connect 47 2 71 1;
#X connect 47 3 85 0;
#X connect 48 0 32 0;
#X connect 50 0 49 0;
#X connect 51 0 50 0;
#X connect 52 0 48 0;
#X connect 53 0 46 1;
#X connect 54 0 58 0;
#X connect 55 0 54 1;
#X connect 56 0 54 2;
#X connect 57 0 54 0;
#X connect 58 0 67 1;
#X connect 59 0 58 1;
#X connect 60 0 62 0;
#X connect 61 0 62 1;
#X connect 62 0 57 0;
#X connect 63 0 59 0;
#X connect 64 0 61 0;
#X connect 64 0 63 0;
#X connect 64 0 66 0;
#X connect 64 0 84 0;
#X connect 64 0 92 0;
#X connect 65 0 60 0;
#X connect 66 0 65 0;
#X connect 67 0 88 0;
#X connect 68 0 69 0;
#X connect 69 0 28 0;
#X connect 70 0 69 1;
#X connect 71 0 70 0;
#X connect 72 0 71 0;
#X connect 73 0 92 1;
#X connect 74 0 96 0;
#X connect 75 0 76 0;
#X connect 76 0 93 0;
#X connect 77 0 94 0;
#X connect 78 0 79 0;
#X connect 80 0 32 1;
#X connect 81 0 60 1;
#X connect 82 0 83 0;
#X connect 83 0 90 0;
#X connect 84 0 82 0;
#X connect 86 0 89 0;
#X connect 87 0 88 2;
#X connect 88 0 34 0;
#X connect 88 0 18 0;
#X connect 89 0 87 0;
#X connect 89 0 88 1;
#X connect 90 0 0 0;
#X connect 90 0 0 1;
#X connect 92 0 73 0;
#X connect 92 0 74 0;
#X connect 93 0 77 0;
#X connect 93 0 95 0;
#X connect 94 0 93 1;
#X connect 95 0 78 0;
#X connect 96 0 75 0;
