#N canvas 3 23 1343 703 10;
#X declare -lib mrpeach;
#X obj -433 760 dac~;
#X obj -730 108 vline~;
#X obj -770 -177 mod 16;
#X obj -728 33 mod 4;
#X obj -729 59 select 0;
#X obj -528 117 vline~;
#X obj -527 41 mod 4;
#X obj -526 64 select 2;
#X obj -573 41 noise~;
#X obj -562 145 *~;
#X obj 4 21 *~;
#X obj 127 -34 vline~;
#X obj 2 -102 * 110;
#X obj 81 119 delwrite~ seq 1000;
#X obj 1137 410 import mrpeach;
#X obj 1138 432 udpreceive 19999;
#X obj 1138 454 unpackOSC;
#X obj 1138 477 routeOSC /hb;
#X obj -35 -277 bang;
#X floatatom 416 184 5 0 0 0 - - -;
#X floatatom 461 184 5 0 0 0 - - -;
#X obj 344 207 phasor~;
#X obj 360 290 *~;
#X obj 516 255 vline~;
#X obj 338 120 * 110;
#X obj 346 142 /;
#X obj 489 28 bang;
#X obj 900 508 select 0;
#X obj 901 530 bang;
#X obj 932 551 + 2;
#X obj 901 595 mtof;
#X obj 901 616 send base;
#X obj 28 -123 receive base;
#X obj 379 101 receive base;
#X obj 901 552 i 0;
#X obj 958 551 mod 12;
#X obj 2 -34 osc~;
#X obj 3 -4 *~;
#X obj 2 -124 + 1;
#X obj 1066 509 bang;
#X obj 1067 530 send step;
#X obj 1142 661 send interval;
#X obj 1164 639 send ok;
#X obj 1186 616 send ue;
#X obj 1209 594 send se;
#X obj 1230 574 send gain;
#X obj 485 -99 receive ok;
#X obj -36 -301 select 1;
#X obj -37 -343 receive ok;
#X obj 418 134 receive gain;
#X text 1182 705 OSC message router;
#X obj 1255 -55 > 0;
#X obj 1254 -29 select 1;
#X obj 1126 256 *~;
#X obj 1261 101 vline~;
#X obj 1111 89 * 110;
#X obj 1112 108 /;
#X obj 1255 -6 bang;
#X obj 1111 47 random 7;
#X obj 1331 -44 receive base;
#X obj 1170 45 random 4;
#X obj 1255 -79 receive se;
#X obj 1331 -23 ftom;
#X obj 1331 -1 + 1;
#X obj 1331 20 mtof;
#X obj 1153 146 *~ 10000;
#X obj 1123 334 delwrite~ error-sd 1000;
#X obj 1111 67 + 1;
#X obj 1020 281 *~ 0.9;
#X obj 1019 255 vd~ error-sd 30;
#X obj 1019 144 receive se;
#X obj 1020 206 * 3;
#X obj 1019 230 line~ 100;
#X obj 1019 173 select 0;
#X obj 1110 173 phasor~;
#X obj 875 -16 select 1;
#X obj 778 153 *~;
#X obj 876 7 bang;
#X obj 876 -73 receive ue;
#X obj 746 76 vline~;
#X obj 748 -24 i;
#X obj 875 -38 > 0;
#X obj 875 70 vline~;
#X obj 2 -79 / 2;
#X obj 106 -100 + 1;
#X obj 901 574 + 36;
#X msg 1262 72 0.3 30 \, 0 100 100;
#X obj 1139 505 unpack i f i i i f i i;
#X obj 1124 686 send index;
#X obj 1249 552 send last16;
#X obj 1268 532 send last128;
#X obj -770 -208 receive index;
#X obj -677 -36 receive last128;
#X obj -728 7 spigot;
#X obj -495 -30 receive last128;
#X obj -528 17 spigot;
#X obj 900 461 receive index;
#X msg -526 88 0.2 0 \, 0 30;
#X obj 900 485 mod 1024;
#X text 842 634 change key for each 1024 steps (64 bars);
#X obj -942 61 vline~;
#X obj -939 -20 mod 4;
#X obj -940 6 select 0;
#X obj -943 90 osc~;
#X obj -887 158 *~;
#X obj -830 93 vline~;
#X obj -888 -87 receive last128;
#X obj -939 -44 spigot;
#X msg -940 32 160 0 \, 80 100 \, 0 200;
#X obj 1110 209 lores~ 10000 0.5;
#X obj -888 -63 > 64;
#X obj -495 -6 > 128;
#X obj -677 -12 > 256;
#X obj -731 130 osc~;
#X msg -828 70 0.4 1 \, 0 60 60;
#X obj 748 19 clip 2000 10000;
#X obj 746 99 osc~;
#X obj 748 -3 * 1000;
#X msg 748 49 \$1 0 \, 0 900 60;
#X obj 727 264 delwrite~ ue 2000;
#X obj 683 205 delread~ ue 60;
#X obj 712 234 *~ 0.3;
#X obj 116 45 delread~ seq 40;
#X obj 116 -2 receive interval;
#X obj 663 233 *~ 0.4;
#X obj 783 202 lores~ 1000 0.2;
#X obj -943 126 lores~ 800 0.75;
#X obj -732 179 lores~ 1000 0.5;
#X obj -731 153 *~ 0.8;
#X msg -729 85 140 0 \, 70 100 \, 0 300;
#X msg 876 41 1 2 \, 0.3 20 20 \, 0 800 80;
#X obj -305 14 *~;
#X obj -182 -41 vline~;
#X obj -308 -86 * 110;
#X obj -307 -41 osc~;
#X obj -193 -9 receive interval;
#X obj 116 20 * 6;
#X obj -137 67 *~ 0.4;
#X obj -209 104 delwrite~ seq2 1000;
#X obj -308 -108 + 3;
#X obj 0 148 +~;
#X obj -308 -63 / 2;
#X obj -193 38 delread~ seq2 40;
#X obj 116 70 *~ 0.3;
#X obj -193 13 * 4;
#X obj -309 -128 random 3;
#X obj 341 95 + 1;
#X obj 342 68 random 7;
#X obj -36 -322 > 0;
#X obj 344 244 lores~ 1000 0.94;
#X obj 530 94 bng 15 250 50 0 empty empty empty 17 7 0 10 -262144 -1
-1;
#X obj 488 5 spigot;
#X obj 107 -126 random 2;
#X obj 1 -144 random 6;
#X obj 396 -1 * 2;
#X obj 336 30 clip 1 10;
#X obj 560 -97 receive last128;
#X obj 509 -54 spigot;
#X obj 397 207 vline~ 20;
#X obj 419 157 * 50;
#X obj 431 55 random 1;
#X obj 430 77 + 1;
#X obj 486 -20 > 1;
#X obj 347 168 / 2;
#X msg 516 226 0.7 30 \, 0 1000 1000;
#X obj 464 206 vline~ 20;
#X obj 560 -73 > 96;
#X msg 127 -64 0.4 8 \, 0.3 40 40 \, 0 1000 100;
#X msg -182 -71 0.18 8 \, 0.05 40 40 \, 0 1000 100;
#X obj -528 451 receive index;
#X obj -528 474 % 16;
#X obj -527 494 == 0;
#X obj -527 516 spigot;
#X obj -527 538 bang;
#X obj -548 664 tabwrite~ master;
#X obj -427 615 phasor~ 0.5;
#X obj -427 646 *~ 88200;
#X obj -555 687 table master 89000;
#X msg -520 631 start 100;
#X obj -426 680 tabread4~ master;
#X msg -474 568 0.5;
#X msg -442 567 1;
#X obj -347 582 vline~;
#X msg -346 560 0.5 0 \, 0 3000;
#X obj -643 629 *~;
#X obj -631 559 sig~;
#X obj 78 650 send halt;
#X obj -37 643 send boot;
#X obj -425 713 *~;
#X obj -253 504 receive halt;
#X msg -262 625 1;
#X obj -290 679 sig~;
#X obj -163 506 receive boot;
#X msg -199 622 0;
#X obj -614 480 receive halt;
#X obj -703 482 receive boot;
#X msg -609 516 0;
#X msg -681 511 1;
#X obj -183 682 osc~ 1320;
#X obj -131 706 *~;
#X obj -117 682 sig~;
#X msg -118 623 0.6;
#X obj -119 596 delay 5000;
#X text -782 584 The "Dead" sound;
#X text 13 534 Signal monitor;
#X obj -4 555 receive interval;
#X obj 79 581 * 2;
#X obj 79 625 delay;
#X obj 49 602 bang;
#X obj -37 619 bang;
#X msg -120 568 stop;
#X obj 1116 454 bng 15 250 50 0 empty empty empty 17 7 0 10 -262144
-1 -1;
#X obj -748 233 throw~ out;
#X obj 25 209 throw~ out;
#X obj -592 582 catch~ out;
#X obj 24 183 lores~ 1000 0;
#X obj 360 318 throw~ out;
#X obj 749 311 throw~ out;
#X obj 975 319 throw~ out;
#X text -823 -262 Rhythm Section;
#X text -215 -298 Music box;
#X text 422 -142 Acid base;
#X text 793 -114 User error siren;
#X text 1127 -40 Server error siren;
#X connect 1 0 113 0;
#X connect 2 0 93 0;
#X connect 2 0 95 0;
#X connect 2 0 107 0;
#X connect 3 0 4 0;
#X connect 4 0 129 0;
#X connect 5 0 9 1;
#X connect 6 0 7 0;
#X connect 7 0 97 0;
#X connect 8 0 9 0;
#X connect 9 0 212 0;
#X connect 10 0 13 0;
#X connect 10 0 140 1;
#X connect 11 0 10 1;
#X connect 12 0 83 0;
#X connect 15 0 16 0;
#X connect 15 0 211 0;
#X connect 16 0 17 0;
#X connect 17 0 39 0;
#X connect 17 0 87 0;
#X connect 18 0 152 0;
#X connect 18 0 153 0;
#X connect 18 0 167 0;
#X connect 18 0 145 0;
#X connect 18 0 168 0;
#X connect 19 0 158 0;
#X connect 20 0 165 0;
#X connect 21 0 149 0;
#X connect 22 0 216 0;
#X connect 23 0 22 1;
#X connect 24 0 25 0;
#X connect 25 0 163 0;
#X connect 26 0 164 0;
#X connect 26 0 147 0;
#X connect 26 0 150 0;
#X connect 26 0 160 0;
#X connect 27 0 28 0;
#X connect 28 0 34 0;
#X connect 29 0 35 0;
#X connect 30 0 31 0;
#X connect 32 0 12 1;
#X connect 33 0 24 1;
#X connect 34 0 29 0;
#X connect 34 0 85 0;
#X connect 35 0 34 1;
#X connect 36 0 37 1;
#X connect 36 0 37 0;
#X connect 37 0 10 0;
#X connect 38 0 12 0;
#X connect 39 0 40 0;
#X connect 46 0 157 0;
#X connect 47 0 18 0;
#X connect 48 0 148 0;
#X connect 49 0 159 0;
#X connect 51 0 52 0;
#X connect 52 0 57 0;
#X connect 53 0 66 0;
#X connect 54 0 53 1;
#X connect 54 0 65 0;
#X connect 55 0 56 0;
#X connect 56 0 74 0;
#X connect 57 0 86 0;
#X connect 57 0 58 0;
#X connect 57 0 60 0;
#X connect 58 0 67 0;
#X connect 59 0 62 0;
#X connect 60 0 56 1;
#X connect 61 0 51 0;
#X connect 62 0 63 0;
#X connect 63 0 64 0;
#X connect 64 0 55 1;
#X connect 65 0 109 1;
#X connect 67 0 55 0;
#X connect 68 0 66 0;
#X connect 69 0 68 0;
#X connect 69 0 218 0;
#X connect 70 0 73 0;
#X connect 71 0 72 0;
#X connect 72 0 69 0;
#X connect 73 1 71 0;
#X connect 74 0 109 0;
#X connect 75 0 77 0;
#X connect 76 0 125 0;
#X connect 77 0 80 0;
#X connect 77 0 130 0;
#X connect 78 0 80 1;
#X connect 78 0 81 0;
#X connect 79 0 116 0;
#X connect 80 0 117 0;
#X connect 81 0 75 0;
#X connect 82 0 76 1;
#X connect 83 0 36 0;
#X connect 83 0 133 1;
#X connect 84 0 83 1;
#X connect 85 0 30 0;
#X connect 86 0 54 0;
#X connect 87 0 88 0;
#X connect 87 1 41 0;
#X connect 87 2 42 0;
#X connect 87 3 43 0;
#X connect 87 4 44 0;
#X connect 87 5 45 0;
#X connect 87 6 89 0;
#X connect 87 7 90 0;
#X connect 91 0 2 0;
#X connect 92 0 112 0;
#X connect 93 0 3 0;
#X connect 94 0 111 0;
#X connect 95 0 6 0;
#X connect 96 0 98 0;
#X connect 97 0 5 0;
#X connect 98 0 27 0;
#X connect 100 0 103 0;
#X connect 101 0 102 0;
#X connect 102 0 108 0;
#X connect 102 0 114 0;
#X connect 103 0 126 0;
#X connect 104 0 212 0;
#X connect 105 0 104 1;
#X connect 106 0 110 0;
#X connect 107 0 101 0;
#X connect 108 0 100 0;
#X connect 109 0 53 0;
#X connect 110 0 107 1;
#X connect 111 0 95 1;
#X connect 112 0 93 1;
#X connect 113 0 128 0;
#X connect 114 0 105 0;
#X connect 115 0 118 0;
#X connect 116 0 76 0;
#X connect 117 0 115 0;
#X connect 118 0 79 0;
#X connect 120 0 121 0;
#X connect 120 0 124 0;
#X connect 121 0 119 0;
#X connect 122 0 143 0;
#X connect 123 0 136 0;
#X connect 124 0 217 0;
#X connect 125 0 119 0;
#X connect 125 0 217 0;
#X connect 126 0 104 0;
#X connect 127 0 212 0;
#X connect 128 0 127 0;
#X connect 129 0 1 0;
#X connect 130 0 82 0;
#X connect 131 0 138 0;
#X connect 131 0 140 0;
#X connect 132 0 131 1;
#X connect 133 0 141 0;
#X connect 134 0 131 0;
#X connect 135 0 144 0;
#X connect 136 0 122 0;
#X connect 137 0 138 0;
#X connect 137 0 140 0;
#X connect 139 0 133 0;
#X connect 140 0 215 0;
#X connect 141 0 134 0;
#X connect 142 0 137 0;
#X connect 143 0 13 0;
#X connect 143 0 140 1;
#X connect 144 0 142 0;
#X connect 145 0 139 0;
#X connect 146 0 24 0;
#X connect 147 0 146 0;
#X connect 148 0 47 0;
#X connect 149 0 22 0;
#X connect 151 0 26 0;
#X connect 152 0 84 0;
#X connect 153 0 38 0;
#X connect 154 0 155 0;
#X connect 155 0 147 1;
#X connect 156 0 166 0;
#X connect 157 0 154 0;
#X connect 157 0 162 0;
#X connect 158 0 149 1;
#X connect 159 0 19 0;
#X connect 160 0 161 0;
#X connect 161 0 25 1;
#X connect 162 0 151 1;
#X connect 162 0 151 0;
#X connect 163 0 21 0;
#X connect 164 0 23 0;
#X connect 165 0 149 2;
#X connect 166 0 157 1;
#X connect 167 0 11 0;
#X connect 168 0 132 0;
#X connect 169 0 170 0;
#X connect 170 0 171 0;
#X connect 171 0 172 1;
#X connect 171 0 172 0;
#X connect 172 0 173 0;
#X connect 173 0 178 0;
#X connect 173 0 181 0;
#X connect 173 0 180 0;
#X connect 175 0 176 0;
#X connect 176 0 179 0;
#X connect 178 0 174 0;
#X connect 179 0 188 0;
#X connect 180 0 175 0;
#X connect 181 0 175 1;
#X connect 182 0 175 0;
#X connect 183 0 182 0;
#X connect 184 0 0 0;
#X connect 184 0 0 1;
#X connect 185 0 184 1;
#X connect 188 0 0 1;
#X connect 188 0 0 0;
#X connect 189 0 183 0;
#X connect 189 0 190 0;
#X connect 189 0 202 0;
#X connect 190 0 191 0;
#X connect 191 0 188 1;
#X connect 192 0 193 0;
#X connect 192 0 210 0;
#X connect 193 0 191 0;
#X connect 193 0 200 0;
#X connect 194 0 196 0;
#X connect 195 0 197 0;
#X connect 196 0 185 0;
#X connect 197 0 185 0;
#X connect 198 0 199 0;
#X connect 199 0 0 1;
#X connect 199 0 0 0;
#X connect 200 0 199 1;
#X connect 201 0 200 0;
#X connect 202 0 201 0;
#X connect 205 0 206 0;
#X connect 205 0 209 0;
#X connect 206 0 207 1;
#X connect 206 0 208 0;
#X connect 207 0 186 0;
#X connect 208 0 207 0;
#X connect 209 0 187 0;
#X connect 210 0 202 0;
#X connect 214 0 174 0;
#X connect 214 0 184 0;
#X connect 215 0 213 0;
