#N canvas 0 22 1343 703 10;
#X declare -lib mrpeach;
#X obj 361 623 dac~;
#X obj 130 281 vline~;
#X floatatom 186 104 5 0 0 0 - - -;
#X obj 247 61 + 1;
#X obj 275 60 mod 16;
#X obj 216 62 i;
#X obj 133 200 mod 4;
#X obj 132 226 select 0;
#X obj 334 273 vline~;
#X obj 335 197 mod 4;
#X obj 336 220 select 2;
#X obj 289 197 noise~;
#X obj 300 301 *~;
#X obj 362 596 receive~ out;
#X obj 469 593 send~ out;
#X msg 336 244 0.3 0 \, 0 30;
#X obj 129 346 lores~;
#X floatatom 193 309 5 0 0 0 - - -;
#X floatatom 233 310 5 0 0 0 - - -;
#X obj 129 310 osc~;
#X msg 132 252 170 0 \, 80 100 \, 0 200;
#X obj 482 341 *~;
#X obj 605 286 vline~;
#X obj 620 483 *~ 0.3;
#X obj 467 144 * 110;
#X obj 616 537 delwrite~ seq 1000;
#X obj 1092 -7 import mrpeach;
#X obj 1093 15 udpreceive 19999;
#X obj 1093 37 unpackOSC;
#X obj 216 38 bang;
#X obj 1093 60 routeOSC /hb;
#X obj 604 65 bang;
#X obj 907 29 > 0;
#X obj 906 55 select 1;
#X obj 821 235 * 100;
#X obj 620 458 delread~ seq 480;
#X obj 762 293 lores~;
#X floatatom 821 263 5 0 0 0 - - -;
#X floatatom 873 260 5 0 0 0 - - -;
#X obj 762 257 phasor~;
#X obj 778 340 *~;
#X obj 934 305 vline~;
#X obj 763 173 * 110;
#X obj 764 192 /;
#X obj 907 78 bang;
#X obj 763 131 random 7;
#X obj 654 347 +~;
#X obj 927 438 + 1;
#X floatatom 900 461 5 0 0 0 - - -;
#X obj 900 508 select 0;
#X obj 901 530 bang;
#X obj 932 551 + 2;
#X obj 901 595 mtof;
#X obj 901 616 send base;
#X obj 523 123 receive base;
#X obj 820 152 receive base;
#X obj 548 356 receive dist;
#X obj 609 400 * -1;
#X obj 542 433 clip~ -1 1;
#X obj 548 378 - 1;
#X obj 899 438 i 0;
#X obj 901 552 i 0;
#X obj 958 551 mod 12;
#X obj 901 574 + 24;
#X obj 480 286 osc~;
#X obj 481 316 *~;
#X msg 935 276 0.4 30 \, 0 100 100;
#X msg 605 256 0.3 3 \, 0 1000 100;
#X obj 467 122 + 1;
#X obj 467 102 random 6;
#X obj 763 151 + 1;
#X obj 822 129 random 4;
#X obj 1250 86 bang;
#X obj 1251 107 send step;
#X obj 1094 88 unpack f i i i f;
#X obj 1097 199 send interval;
#X obj 1119 177 send ok;
#X obj 1141 154 send ue;
#X obj 1164 132 send se;
#X obj 1185 112 send gain;
#X obj 907 5 receive ok;
#X obj 216 12 receive step;
#X obj 898 413 receive step;
#X obj 900 485 mod 2048;
#X text 842 634 change key for each 2048 steps (128 bars);
#X obj 604 20 > 0;
#X obj 604 43 select 1;
#X obj 604 -4 receive ok;
#X obj 820 212 receive gain;
#X connect 1 0 19 0;
#X connect 3 0 4 0;
#X connect 4 0 2 0;
#X connect 4 0 5 1;
#X connect 4 0 6 0;
#X connect 4 0 9 0;
#X connect 5 0 3 0;
#X connect 6 0 7 0;
#X connect 7 0 20 0;
#X connect 8 0 12 1;
#X connect 9 0 10 0;
#X connect 10 0 15 0;
#X connect 11 0 12 0;
#X connect 12 0 14 0;
#X connect 13 0 0 0;
#X connect 13 0 0 1;
#X connect 15 0 8 0;
#X connect 16 0 14 0;
#X connect 17 0 16 1;
#X connect 18 0 16 2;
#X connect 19 0 16 0;
#X connect 20 0 1 0;
#X connect 21 0 46 0;
#X connect 22 0 21 1;
#X connect 23 0 14 0;
#X connect 23 0 25 0;
#X connect 24 0 64 0;
#X connect 27 0 28 0;
#X connect 28 0 30 0;
#X connect 29 0 5 0;
#X connect 30 0 72 0;
#X connect 30 0 74 0;
#X connect 31 0 67 0;
#X connect 31 0 69 0;
#X connect 32 0 33 0;
#X connect 33 0 44 0;
#X connect 34 0 37 0;
#X connect 35 0 23 0;
#X connect 36 0 40 0;
#X connect 37 0 36 1;
#X connect 38 0 36 2;
#X connect 39 0 36 0;
#X connect 40 0 46 1;
#X connect 41 0 40 1;
#X connect 42 0 43 0;
#X connect 43 0 39 0;
#X connect 44 0 66 0;
#X connect 44 0 45 0;
#X connect 44 0 71 0;
#X connect 45 0 70 0;
#X connect 46 0 58 0;
#X connect 47 0 60 1;
#X connect 48 0 83 0;
#X connect 49 0 50 0;
#X connect 50 0 61 0;
#X connect 51 0 62 0;
#X connect 52 0 53 0;
#X connect 54 0 24 1;
#X connect 55 0 42 1;
#X connect 56 0 59 0;
#X connect 57 0 58 2;
#X connect 58 0 25 0;
#X connect 58 0 14 0;
#X connect 59 0 57 0;
#X connect 59 0 58 1;
#X connect 60 0 47 0;
#X connect 60 0 48 0;
#X connect 61 0 51 0;
#X connect 61 0 63 0;
#X connect 62 0 61 1;
#X connect 63 0 52 0;
#X connect 64 0 65 1;
#X connect 64 0 65 0;
#X connect 65 0 21 0;
#X connect 66 0 41 0;
#X connect 67 0 22 0;
#X connect 68 0 24 0;
#X connect 69 0 68 0;
#X connect 70 0 42 0;
#X connect 71 0 43 1;
#X connect 72 0 73 0;
#X connect 74 0 75 0;
#X connect 74 1 76 0;
#X connect 74 2 77 0;
#X connect 74 3 78 0;
#X connect 74 4 79 0;
#X connect 80 0 32 0;
#X connect 81 0 29 0;
#X connect 82 0 60 0;
#X connect 83 0 49 0;
#X connect 85 0 86 0;
#X connect 86 0 31 0;
#X connect 87 0 85 0;
#X connect 88 0 34 0;
